<?xml version="1.0" encoding="utf-8"?>
<!-- Generator: Adobe Illustrator 16.0.0, SVG Export Plug-In . SVG Version: 6.00 Build 0)  -->
<!DOCTYPE svg PUBLIC "-//W3C//DTD SVG 1.1//EN" "http://www.w3.org/Graphics/SVG/1.1/DTD/svg11.dtd">
<svg version="1.1" id="Layer_1" xmlns="http://www.w3.org/2000/svg" xmlns:xlink="http://www.w3.org/1999/xlink" x="0px" y="0px"
	 width="417.455px" height="162.554px" viewBox="0 0 417.455 162.554" enable-background="new 0 0 417.455 162.554"
	 xml:space="preserve">
<path fill-rule="evenodd" clip-rule="evenodd" fill="#AB1A2E" d="M34.065,44.401C23.079,56.167,9.854,80.087,14.418,97.25
	c1.996,7.506,7.46,14.008,17.42,11.215c11.498-3.225,21.919-21.035,27.46-31.583c3.524-6.708,6.953-13.231,10.542-19.19
	c4.353-7.229,12.129-18.172,19.433-22.987c12.178-10.457,40.537-5.93,33.839,10.299c-6.469,15.676-30.814,22.006-22.215,32.413
	c6.062,7.336,21.139,9.16,23.794,19.614c1.118,4.4,0.224,8.746-1.563,12.02c-8.304,15.206-32.429,26.988-38.502,3.659
	c-1.434-6.111,0.707-18.152,2.053-24.088c1.364-6.011,4.379-16.3,4.504-22.492c0.101-4.984-2.482-7.832-7.071-4.835
	c-5.136,3.353-13.029,18.664-15.654,24.36c-5.303,11.509-12.268,25.211-14.532,39.208c-6.747,41.702,39.781,39.866,67.078,34.704
	c15.159-2.866,27.961-8.17,38.021-15.738c9.36-7.043,18.862-20.392,13.412-37.354c-4.267-13.28-12.839-19.826-18.875-24.23
	c-1.353-0.987-12.116-8.795-12.747-9.251c21.605-8.02,45.273-30.979,22.45-51.341c-13.037-11.631-33.553-15.533-51.077-15.81
	C82.378,5.37,53.555,22.933,34.065,44.401 M145.229,25.908c6.626-1.052,12.118,3.808,12.934,9.479
	c0.97,6.75-3.755,12.088-9.391,12.933C133.467,50.613,130.472,28.251,145.229,25.908z"/>
<path fill-rule="evenodd" clip-rule="evenodd" fill="#AB1A2E" d="M118.693,6.482c2.534,2.406,0.774,3.558-3.249,3.489
	c-37.025-0.631-52.748,0.221-95.339,33.059c-3.219,2.481-15.694,12.128-19.161,6.75c-1.105-1.714-0.993-5.137-0.866-7.196
	c0.292-4.733,1.855-9.087,4.235-13.232c0.43-0.75,0.917-1.487,1.454-2.211C21.858,5.505,84.843-4.472,118.693,6.482"/>
<path fill="#F2B800" d="M398.542,93.915c-3.198,1.471-6.65,2.366-10.359,2.686c-3.708,0.32-7.289,0.032-10.742-0.863
	c-1.343-0.319-2.669-0.751-3.979-1.294c-1.312-0.543-2.574-1.167-3.789-1.87c-2.238-1.407-3.613-3.357-4.124-5.852
	c-0.384-2.046-0.176-4.123,0.623-6.234c0.8-2.11,2.03-3.805,3.692-5.083c1.982-1.536,4.221-2.047,6.715-1.536
	c1.598,0.32,3.133,0.848,4.604,1.583s3.037,1.103,4.699,1.103c1.343,0,2.686-0.383,4.028-1.15c1.343-0.768,2.398-1.695,3.165-2.782
	c1.023-1.47,1.743-3.068,2.158-4.795c0.416-1.727,0.72-3.453,0.911-5.18c-1.471,1.727-3.277,3.181-5.419,4.364
	s-4.364,1.935-6.666,2.254c-1.599,0.127-3.197,0.032-4.796-0.288s-3.134-0.832-4.604-1.536c-2.494-1.086-4.748-2.668-6.762-4.747
	c-2.015-2.078-3.564-4.364-4.651-6.857c-1.023-2.366-1.711-4.812-2.063-7.338c-0.352-2.525-0.56-5.067-0.624-7.624
	c0-1.791-0.032-3.597-0.096-5.419c-0.063-1.823,0.063-3.629,0.384-5.419c0.128-0.768,0.336-1.519,0.624-2.254
	c0.287-0.735,0.688-1.391,1.198-1.966c0.832-0.832,1.822-1.439,2.974-1.823c1.15-0.383,2.27-0.639,3.357-0.768
	c0.959-0.064,1.918-0.128,2.877-0.192c0.959-0.063,1.918-0.096,2.877-0.096c0.896,0,1.823,0.064,2.782,0.192
	c0.959,0.128,1.79,0.448,2.493,0.959c0.575,0.448,1.022,1.039,1.343,1.774c0.319,0.735,0.512,1.455,0.575,2.159
	c0.191,2.685,0.112,5.371-0.239,8.056c-0.352,2.686-0.464,5.371-0.336,8.057c0.128,1.279,0.352,2.542,0.671,3.788
	c0.32,1.247,0.831,2.382,1.534,3.405c1.024,1.343,2.351,1.887,3.981,1.631c1.631-0.257,2.988-1.056,4.076-2.398
	c1.279-1.663,2.094-3.613,2.445-5.851c0.353-2.238,0.496-4.444,0.433-6.618c0-0.768-0.064-1.902-0.192-3.405s-0.24-3.069-0.336-4.7
	s-0.111-3.181-0.048-4.652c0.064-1.471,0.256-2.526,0.576-3.166c0-0.575,0.191-1.086,0.575-1.534s0.863-0.815,1.438-1.103
	s1.199-0.528,1.87-0.719c0.671-0.192,1.295-0.319,1.871-0.383c1.917-0.32,3.868-0.416,5.851-0.288
	c0.767,0.064,1.534,0.16,2.301,0.288c0.768,0.127,1.503,0.383,2.206,0.767c0.959,0.511,1.727,1.423,2.303,2.733
	c0.575,1.312,1.038,2.75,1.391,4.316c0.352,1.567,0.591,3.134,0.72,4.7c0.127,1.566,0.224,2.862,0.287,3.885
	c0.128,2.813,0.16,5.595,0.096,8.344c-0.063,2.75-0.096,5.531-0.096,8.345c0,4.86-0.256,9.72-0.768,14.579
	c-0.511,4.86-1.63,9.56-3.356,14.1c-1.088,2.941-2.766,5.61-5.036,8.009C403.896,90.606,401.354,92.509,398.542,93.915
	 M314.426,80.296c-1.278,0.192-2.605,0.304-3.98,0.336c-1.375,0.032-2.732-0.081-4.076-0.336c-0.767-0.128-1.55-0.352-2.35-0.672
	c-0.8-0.32-1.454-0.767-1.966-1.342c-0.704-0.704-1.231-1.567-1.582-2.59c-0.353-1.023-0.593-2.046-0.721-3.069
	c-0.063-0.575-0.063-1.678,0-3.309c0.064-1.63,0.145-3.356,0.24-5.178c0.096-1.823,0.192-3.533,0.288-5.132
	c0.096-1.599,0.145-2.686,0.145-3.261c0.127-3.069,0.19-6.09,0.19-9.063c0-2.974,0-5.995,0-9.064c0-1.534,0.129-3.101,0.385-4.699
	c0.256-1.598,0.895-2.974,1.918-4.125c0.768-0.831,1.727-1.471,2.877-1.918c1.15-0.447,2.366-0.719,3.645-0.815
	c1.279-0.096,2.542-0.016,3.789,0.24c1.247,0.256,2.35,0.672,3.31,1.247c0.767,0.448,1.438,0.991,2.014,1.63
	s1.118,1.311,1.631,2.014c2.109-1.854,4.539-3.165,7.289-3.932c2.493-0.703,5.051-0.928,7.673-0.671
	c2.622,0.256,5.115,0.959,7.48,2.11c1.855,0.896,3.533,2.142,5.036,3.741c1.502,1.599,2.669,3.357,3.501,5.275
	c0.831,2.046,1.486,4.125,1.966,6.234c0.479,2.111,0.879,4.253,1.198,6.427c0.32,2.11,0.544,4.22,0.672,6.33s0.128,4.221,0,6.331
	c-0.128,3.389-0.543,6.554-1.247,9.496c-0.319,1.023-0.703,2.045-1.15,3.069s-1.056,1.886-1.822,2.589
	c-0.257,0.192-0.64,0.384-1.151,0.576c-0.512,0.191-1.07,0.368-1.679,0.527c-0.607,0.161-1.183,0.304-1.726,0.432
	c-0.544,0.128-0.976,0.191-1.295,0.191c-1.471,0.127-3.006,0.08-4.604-0.144s-3.005-0.783-4.22-1.679
	c-1.151-0.895-1.982-2.014-2.494-3.357c-0.384-0.959-0.639-1.982-0.768-3.069c-0.127-1.087-0.191-2.174-0.191-3.261
	c0-2.43,0.032-4.859,0.096-7.289c0.064-2.43,0.032-4.86-0.096-7.29c-0.063-1.087-0.144-2.19-0.239-3.309
	c-0.097-1.119-0.304-2.222-0.624-3.309c-0.128-0.704-0.352-1.391-0.671-2.063s-0.735-1.263-1.247-1.775
	c-0.448-0.447-1.023-0.671-1.727-0.671c-0.768,0-1.438,0.24-2.014,0.719c-0.576,0.48-1.072,1.103-1.487,1.871
	c-0.416,0.768-0.751,1.583-1.007,2.445c-0.256,0.864-0.447,1.679-0.575,2.447c-0.703,3.453-1.039,6.921-1.008,10.406
	c0.032,3.485-0.016,6.955-0.144,10.407c-0.064,1.087-0.208,2.222-0.432,3.405s-0.688,2.222-1.391,3.117
	c-0.64,0.832-1.471,1.471-2.493,1.918C316.568,79.88,315.514,80.168,314.426,80.296z M253.042,80.296
	c-1.279,0.192-2.605,0.304-3.98,0.336c-1.374,0.032-2.733-0.081-4.076-0.336c-0.768-0.128-1.55-0.352-2.35-0.672
	c-0.8-0.32-1.454-0.767-1.966-1.342c-0.703-0.704-1.231-1.567-1.583-2.59c-0.352-1.023-0.592-2.046-0.72-3.069
	c-0.064-0.575-0.064-1.678,0-3.309c0.063-1.63,0.144-3.356,0.24-5.178c0.096-1.823,0.191-3.533,0.288-5.132
	c0.095-1.599,0.144-2.686,0.144-3.261c0.128-3.069,0.192-6.09,0.192-9.063c0-2.974,0-5.995,0-9.064c0-1.534,0.127-3.101,0.383-4.699
	c0.256-1.598,0.896-2.974,1.918-4.125c0.768-0.831,1.727-1.471,2.878-1.918c1.15-0.447,2.365-0.719,3.645-0.815
	s2.542-0.016,3.789,0.24c1.246,0.256,2.35,0.672,3.309,1.247c0.768,0.448,1.438,0.991,2.015,1.63c0.575,0.64,1.118,1.311,1.63,2.014
	c2.11-1.854,4.54-3.165,7.289-3.932c2.494-0.703,5.052-0.928,7.673-0.671c2.622,0.256,5.116,0.959,7.481,2.11
	c1.854,0.896,3.533,2.142,5.035,3.741c1.503,1.599,2.67,3.357,3.501,5.275c0.832,2.046,1.487,4.125,1.966,6.234
	c0.48,2.111,0.88,4.253,1.199,6.427c0.32,2.11,0.545,4.22,0.672,6.33s0.127,4.221,0,6.331c-0.127,3.389-0.544,6.554-1.247,9.496
	c-0.319,1.023-0.703,2.045-1.15,3.069c-0.448,1.023-1.056,1.886-1.823,2.589c-0.255,0.192-0.64,0.384-1.15,0.576
	c-0.512,0.191-1.071,0.368-1.679,0.527c-0.607,0.161-1.183,0.304-1.727,0.432c-0.544,0.128-0.975,0.191-1.294,0.191
	c-1.472,0.127-3.006,0.08-4.604-0.144s-3.005-0.783-4.22-1.679c-1.151-0.895-1.982-2.014-2.494-3.357
	c-0.384-0.959-0.64-1.982-0.767-3.069c-0.129-1.087-0.192-2.174-0.192-3.261c0-2.43,0.032-4.859,0.096-7.289
	c0.064-2.43,0.032-4.86-0.096-7.29c-0.063-1.087-0.145-2.19-0.24-3.309c-0.096-1.119-0.303-2.222-0.623-3.309
	c-0.128-0.704-0.352-1.391-0.671-2.063s-0.735-1.263-1.247-1.775c-0.448-0.447-1.023-0.671-1.728-0.671
	c-0.767,0-1.438,0.24-2.014,0.719c-0.575,0.48-1.071,1.103-1.486,1.871s-0.751,1.583-1.007,2.445
	c-0.256,0.864-0.448,1.679-0.575,2.447c-0.703,3.453-1.039,6.921-1.007,10.406c0.031,3.485-0.018,6.955-0.146,10.407
	c-0.063,1.087-0.207,2.222-0.431,3.405s-0.688,2.222-1.391,3.117c-0.64,0.832-1.471,1.471-2.494,1.918
	C255.185,79.88,254.13,80.168,253.042,80.296z M229.256,78.282c-1.279,0.895-2.718,1.534-4.316,1.918
	c-1.598,0.383-3.197,0.511-4.796,0.383c-0.895-0.128-1.79-0.303-2.685-0.527c-0.896-0.224-1.727-0.592-2.494-1.104
	c-1.088-0.703-1.854-1.71-2.302-3.021c-0.448-1.311-0.735-2.605-0.863-3.884c-1.471,1.663-3.133,3.149-4.988,4.46
	c-1.854,1.31-3.836,2.286-5.946,2.925c-2.494,0.703-4.988,0.799-7.481,0.288c-2.238-0.447-4.316-1.279-6.234-2.494
	c-1.918-1.215-3.517-2.75-4.796-4.604c-0.703-0.959-1.262-1.966-1.678-3.021c-0.415-1.055-0.783-2.126-1.103-3.213
	c-0.512-1.918-0.864-3.869-1.056-5.851c-0.192-1.983-0.256-3.964-0.192-5.947c0.192-3.581,0.624-7.114,1.295-10.598
	c0.672-3.485,1.359-7.018,2.063-10.598c0.128-0.895,0.303-1.822,0.527-2.782c0.225-0.96,0.625-1.791,1.2-2.494
	c0.447-0.703,1.039-1.231,1.774-1.583c0.735-0.351,1.519-0.623,2.35-0.814c2.366-0.512,4.732-0.607,7.098-0.288
	c0.767,0.128,1.518,0.288,2.253,0.479c0.736,0.192,1.455,0.512,2.158,0.959c0.512,0.32,0.976,0.784,1.391,1.392
	c0.416,0.607,0.655,1.262,0.719,1.965c0.063,0.768-0.064,2.095-0.384,3.98c-0.319,1.887-0.719,3.853-1.199,5.899
	c-0.479,2.046-0.943,4.013-1.391,5.899c-0.448,1.886-0.735,3.213-0.863,3.98c-0.511,2.302-0.704,4.668-0.576,7.097
	c0.064,1.087,0.239,2.19,0.527,3.31c0.288,1.119,0.704,2.11,1.248,2.973c0.543,0.863,1.214,1.551,2.014,2.062
	c0.799,0.512,1.742,0.704,2.829,0.575c1.151-0.127,2.174-0.623,3.069-1.486c0.895-0.864,1.63-1.807,2.205-2.83
	c0.704-1.343,1.248-2.75,1.632-4.22c0.383-1.471,0.639-2.941,0.767-4.412c0.128-1.215,0.192-3.005,0.192-5.371
	c0-2.366,0.079-4.795,0.239-7.289c0.16-2.494,0.432-4.844,0.815-7.05c0.384-2.206,0.991-3.756,1.822-4.651
	c0.383-0.448,0.848-0.815,1.391-1.103c0.544-0.287,1.104-0.527,1.679-0.72c0.896-0.255,1.935-0.399,3.117-0.431
	c1.183-0.033,2.365,0.08,3.549,0.335c1.183,0.256,2.286,0.64,3.31,1.151c1.022,0.511,1.821,1.151,2.396,1.918
	c0.768,0.959,1.279,2.063,1.535,3.309c0.256,1.248,0.385,2.478,0.385,3.693c0,1.599-0.146,3.182-0.433,4.748
	c-0.288,1.567-0.575,3.118-0.863,4.652s-0.56,3.085-0.815,4.652s-0.352,3.149-0.288,4.748c0,0.704,0.177,1.902,0.528,3.597
	s0.735,3.5,1.15,5.419c0.416,1.918,0.768,3.741,1.056,5.467c0.287,1.726,0.368,2.909,0.239,3.548
	c-0.127,0.895-0.432,1.759-0.911,2.59C230.646,77.099,230.023,77.771,229.256,78.282z"/>
<path fill="#6B994F" d="M395.498,161.676c-2.579,0.123-5.112,0.139-7.6,0.047c-2.488-0.093-4.991-0.385-7.508-0.875
	c-1.536-0.308-3.072-0.769-4.606-1.383c-1.536-0.614-2.826-1.505-3.87-2.672c-0.676-0.798-1.229-1.781-1.658-2.948
	s-0.706-2.363-0.829-3.593c-0.123-1.228-0.092-2.456,0.092-3.685c0.185-1.229,0.554-2.272,1.106-3.132
	c0.736-1.044,1.597-1.781,2.579-2.212c1.412-0.553,2.887-0.845,4.422-0.874c1.536-0.031,3.01,0.106,4.422,0.414
	c0.922,0.185,1.828,0.43,2.718,0.737c0.891,0.307,1.797,0.599,2.718,0.875c0.922,0.276,1.843,0.506,2.765,0.69
	c0.92,0.185,1.842,0.246,2.763,0.185c0.676,0,1.352-0.139,2.026-0.415c0.677-0.276,1.014-0.752,1.014-1.428
	c0-0.43-0.199-0.813-0.599-1.151s-0.875-0.614-1.428-0.829s-1.137-0.398-1.75-0.553c-0.614-0.153-1.137-0.292-1.565-0.415
	c-1.966-0.553-3.947-1.09-5.943-1.612c-1.996-0.521-3.915-1.212-5.758-2.072c-1.289-0.614-2.519-1.352-3.685-2.211
	c-1.167-0.86-2.088-1.904-2.764-3.133c-0.983-1.781-1.628-3.685-1.935-5.712c-0.308-2.026-0.216-4.021,0.276-5.987
	c0.307-1.475,0.891-2.872,1.75-4.191c0.86-1.321,1.843-2.503,2.948-3.547c2.824-2.458,6.11-3.962,9.857-4.515
	c2.088-0.368,4.222-0.415,6.402-0.139s4.254,0.814,6.219,1.612c0.798-0.43,1.812-0.859,3.04-1.289
	c1.229-0.431,2.487-0.769,3.777-1.014s2.533-0.354,3.73-0.323c1.198,0.031,2.165,0.323,2.902,0.876
	c0.308,0.245,0.567,0.552,0.783,0.921c0.215,0.368,0.384,0.769,0.507,1.198c0.184,0.676,0.322,1.673,0.414,2.993
	s0.139,2.703,0.139,4.146s-0.062,2.84-0.185,4.191s-0.276,2.364-0.461,3.04c-0.245,0.676-0.599,1.32-1.06,1.935
	c-0.46,0.614-1.028,1.075-1.704,1.382c-0.859,0.431-1.796,0.629-2.81,0.599s-2.011-0.168-2.994-0.415
	c-2.149-0.49-4.207-1.166-6.173-2.026c-1.965-0.859-4.022-1.534-6.172-2.026c-0.553-0.123-1.12-0.169-1.704-0.139
	c-0.583,0.031-1.105,0.154-1.566,0.369s-0.845,0.507-1.151,0.875s-0.431,0.829-0.368,1.382c0.062,0.614,0.368,1.121,0.921,1.521
	s1.137,0.722,1.75,0.967c0.308,0.123,0.937,0.292,1.889,0.508c0.952,0.214,1.98,0.444,3.086,0.689
	c1.105,0.246,2.15,0.492,3.133,0.737c0.983,0.246,1.627,0.399,1.934,0.461c1.904,0.553,3.809,1.259,5.713,2.119
	c1.904,0.859,3.562,1.996,4.975,3.408c1.413,1.413,2.533,3.056,3.362,4.929s1.306,3.777,1.428,5.712
	c0.123,1.935-0.106,3.854-0.69,5.758c-0.583,1.903-1.551,3.593-2.901,5.067c-0.922,1.044-1.997,1.95-3.225,2.718
	c-1.229,0.768-2.488,1.396-3.777,1.889c-1.475,0.49-2.979,0.844-4.514,1.059C398.569,161.384,397.034,161.553,395.498,161.676
	 M336.077,128.972c0.431,0.43,1.075,0.752,1.935,0.967c0.86,0.216,1.751,0.338,2.672,0.369c0.922,0.03,1.843-0.016,2.764-0.138
	c0.921-0.124,1.689-0.276,2.304-0.462c1.167-0.368,2.089-0.981,2.764-1.843c0.676-0.859,1.105-1.811,1.29-2.855
	c0.185-1.044,0.092-2.104-0.276-3.179c-0.369-1.074-1.014-2.011-1.935-2.81c-0.86-0.736-1.874-1.351-3.041-1.842
	c-1.166-0.492-2.333-0.676-3.5-0.553c-1.352,0.122-2.519,0.614-3.501,1.475c-0.983,0.858-1.704,1.949-2.165,3.27
	s-0.66,2.626-0.599,3.915c0,0.676,0.092,1.352,0.276,2.026C335.248,127.989,335.587,128.542,336.077,128.972z M345.843,161.768
	c-3.193,0.123-6.402,0.077-9.627-0.138s-6.311-0.998-9.259-2.349c-1.72-0.86-3.285-1.98-4.698-3.363
	c-1.412-1.382-2.579-2.871-3.501-4.468c-1.535-2.642-2.595-5.481-3.179-8.521c-0.583-3.04-0.813-6.065-0.69-9.074
	c0.123-2.027,0.276-4.055,0.461-6.081s0.614-4.022,1.29-5.987c0.553-1.598,1.274-3.148,2.165-4.653
	c0.89-1.505,1.949-2.871,3.178-4.099c1.475-1.536,3.148-2.841,5.021-3.916c1.872-1.074,3.792-1.919,5.757-2.533
	c3.686-1.167,7.509-1.582,11.47-1.244c3.962,0.338,7.693,1.367,11.193,3.086c1.72,0.86,3.271,2.027,4.652,3.501
	c1.382,1.475,2.41,3.102,3.087,4.883c0.675,1.721,1.013,3.531,1.013,5.436s-0.215,3.746-0.645,5.527
	c-0.308,1.229-0.722,2.441-1.244,3.64c-0.522,1.197-1.213,2.257-2.072,3.178c-1.106,1.229-2.457,2.228-4.054,2.993
	c-1.597,0.769-3.194,1.307-4.79,1.613c-2.765,0.614-5.574,0.768-8.431,0.46c-2.855-0.307-5.665-0.828-8.429-1.565
	c-0.308-0.123-0.521-0.062-0.646,0.185c-0.184,0.245-0.275,0.583-0.275,1.013s0.015,0.876,0.046,1.336
	c0.03,0.461,0.092,0.922,0.185,1.382c0.091,0.461,0.198,0.813,0.321,1.06c0.185,0.614,0.431,1.105,0.737,1.474
	c0.246,0.246,0.63,0.477,1.151,0.691c0.522,0.215,1.075,0.384,1.658,0.507c0.584,0.122,1.168,0.23,1.751,0.322
	c0.584,0.092,1.059,0.138,1.428,0.138c4.177,0.185,8.414-0.153,12.714-1.013c0.49-0.123,0.998-0.23,1.52-0.322
	c0.522-0.093,1.029-0.261,1.521-0.507c0.368-0.185,0.768-0.276,1.197-0.276c1.105-0.062,2.165,0.353,3.178,1.244
	c1.014,0.89,1.674,1.857,1.981,2.901c0.245,1.044,0.261,2.15,0.046,3.317c-0.215,1.166-0.507,2.271-0.875,3.315
	c-0.431,1.29-1.213,2.411-2.35,3.363c-1.136,0.951-2.35,1.643-3.639,2.072c-1.658,0.491-3.348,0.829-5.067,1.014
	S347.624,161.645,345.843,161.768z M291.581,161.86c-1.352,0.491-2.764,0.722-4.238,0.69c-1.474-0.031-2.917-0.169-4.329-0.414
	c-1.044-0.185-2.073-0.522-3.087-1.014s-1.827-1.167-2.441-2.026c-0.245-0.369-0.461-0.998-0.645-1.889
	c-0.185-0.891-0.322-1.843-0.414-2.856c-0.093-1.013-0.169-1.98-0.23-2.901s-0.093-1.628-0.093-2.119
	c-0.062-3.563,0.016-7.124,0.23-10.687s0.537-7.094,0.968-10.595c-0.983,0.062-1.966,0.093-2.948,0.093s-1.965-0.123-2.948-0.369
	c-1.413-0.307-2.487-0.982-3.225-2.026c-0.43-0.614-0.722-1.443-0.875-2.487s-0.199-2.135-0.139-3.27
	c0.063-1.137,0.185-2.258,0.369-3.363c0.185-1.106,0.399-1.996,0.645-2.672c0.307-0.921,0.814-1.766,1.52-2.533
	c0.707-0.769,1.49-1.336,2.351-1.705c0.982-0.368,2.011-0.536,3.085-0.506c1.075,0.03,2.135,0.107,3.179,0.229
	c0.246-3.808,0.952-7.615,2.119-11.423c0.308-0.982,0.736-1.903,1.29-2.764c0.553-0.86,1.259-1.536,2.119-2.027
	c0.736-0.368,1.688-0.645,2.855-0.829s2.364-0.261,3.593-0.229c1.229,0.029,2.41,0.168,3.547,0.414
	c1.137,0.245,2.072,0.553,2.81,0.921c1.167,0.676,1.996,1.658,2.488,2.948c0.245,0.676,0.384,1.412,0.414,2.21
	c0.03,0.8-0.016,1.567-0.138,2.305c-0.124,1.351-0.292,2.687-0.507,4.008c-0.216,1.319-0.415,2.655-0.6,4.007
	c1.29,0,2.564,0.03,3.823,0.092c1.26,0.062,2.503,0.308,3.731,0.737c1.044,0.368,1.98,0.921,2.81,1.658s1.397,1.597,1.704,2.579
	c0.308,0.982,0.491,1.996,0.554,3.04c0.062,1.045,0.03,2.089-0.093,3.133c-0.123,0.798-0.246,1.582-0.368,2.349
	c-0.124,0.768-0.43,1.489-0.921,2.166c-0.308,0.613-0.783,1.12-1.429,1.52c-0.645,0.399-1.306,0.66-1.98,0.783
	c-1.474,0.307-2.979,0.445-4.514,0.414c-1.536-0.03-3.071-0.107-4.606-0.23c-0.123,3.623-0.17,7.232-0.139,10.825
	s0.107,7.201,0.23,10.825c0.062,1.474,0.077,2.964,0.046,4.468c-0.03,1.505-0.292,2.933-0.783,4.283
	c-0.43,1.044-1.074,1.936-1.935,2.672C293.577,161.03,292.625,161.553,291.581,161.86z M258.415,158.544
	c-1.289,0.553-2.626,0.936-4.007,1.151c-1.382,0.215-2.779,0.354-4.191,0.415c-1.29,0-2.58-0.108-3.87-0.323
	c-1.289-0.215-2.456-0.721-3.501-1.52c-0.859-0.614-1.489-1.429-1.888-2.441c-0.399-1.014-0.69-2.042-0.875-3.087
	c-0.308-1.658-0.522-3.347-0.646-5.066s-0.185-3.44-0.185-5.159v-0.092c-0.307-2.579-0.491-5.175-0.552-7.785
	c-0.062-2.609,0.092-5.235,0.46-7.876c0.123-1.045,0.292-2.089,0.507-3.133s0.691-1.935,1.428-2.672
	c0.614-0.614,1.505-1.12,2.672-1.52s2.41-0.676,3.73-0.829c1.32-0.154,2.627-0.215,3.915-0.185c1.29,0.03,2.365,0.138,3.226,0.322
	c1.535,0.308,2.947,0.86,4.237,1.658c1.29,0.922,2.149,2.242,2.58,3.962c0.307,1.289,0.398,2.58,0.276,3.869
	c-0.123,1.289-0.216,2.609-0.276,3.962c-0.063,2.211-0.123,4.422-0.185,6.633s0.03,4.392,0.276,6.541
	c0.185,1.597,0.368,3.208,0.553,4.837c0.185,1.628,0.03,3.239-0.461,4.836c-0.246,0.737-0.66,1.428-1.243,2.072
	C259.813,157.761,259.152,158.236,258.415,158.544z M256.205,109.901c-0.737,0.676-1.582,1.274-2.533,1.797
	c-0.953,0.521-1.92,0.783-2.903,0.783c-0.613,0-1.213-0.108-1.797-0.323c-0.583-0.215-1.151-0.444-1.703-0.69
	c-0.308-0.062-0.799-0.292-1.475-0.691c-0.675-0.398-1.136-0.69-1.382-0.875c-0.982-0.736-1.934-1.551-2.855-2.441
	s-1.688-1.889-2.304-2.994c-0.43-0.737-0.768-1.52-1.013-2.349c-0.246-0.829-0.307-1.674-0.185-2.534
	c0.123-0.922,0.461-1.674,1.014-2.257s1.228-0.982,2.026-1.197s1.643-0.261,2.533-0.139c0.892,0.124,1.735,0.399,2.534,0.83
	c0.491,0.307,0.937,0.629,1.335,0.967c0.4,0.338,0.845,0.69,1.336,1.059c0.491-0.859,0.983-1.627,1.475-2.303
	c0.553-0.737,1.197-1.351,1.935-1.843c0.736-0.49,1.505-0.829,2.304-1.013c0.798-0.185,1.596-0.199,2.395-0.046
	s1.536,0.537,2.211,1.151c0.491,0.43,0.875,0.951,1.152,1.566c0.276,0.613,0.444,1.259,0.506,1.935
	c0.185,2.088-0.153,4.191-1.013,6.31C258.938,106.724,257.74,108.489,256.205,109.901z M200.284,144.54
	c0.798,1.229,1.904,2.043,3.316,2.442c1.413,0.398,2.733,0.199,3.961-0.6c0.983-0.553,1.812-1.412,2.488-2.579
	c0.675-1.167,1.197-2.441,1.566-3.823c0.368-1.382,0.599-2.795,0.69-4.238c0.093-1.442,0.046-2.717-0.139-3.822
	c-0.307-1.966-1.104-3.654-2.395-5.067c-1.045-1.105-2.349-1.505-3.916-1.198c-1.566,0.308-2.902,1.014-4.007,2.119
	c-1.044,0.982-1.843,2.181-2.396,3.593c-0.552,1.413-0.89,2.902-1.013,4.468c-0.122,1.567-0.03,3.117,0.276,4.653
	C199.025,142.022,199.547,143.374,200.284,144.54z M195.31,159.004c-1.413,0.43-2.841,0.737-4.284,0.922s-2.871,0.215-4.284,0.092
	c-0.86-0.123-1.705-0.308-2.533-0.553c-0.83-0.245-1.582-0.675-2.257-1.289c-0.491-0.492-0.906-1.061-1.243-1.705
	c-0.338-0.645-0.568-1.305-0.691-1.98c-0.308-1.597-0.399-3.225-0.276-4.882c0.123-1.659,0.276-3.287,0.461-4.884
	c0.737-6.694,1.167-13.358,1.289-19.99c0.123-6.633,0.031-13.297-0.276-19.992c0-0.245-0.046-0.737-0.138-1.474
	c-0.092-0.736-0.184-1.52-0.277-2.35c-0.091-0.829-0.169-1.612-0.23-2.349c-0.062-0.737-0.062-1.26,0-1.566
	c0.184-1.72,0.983-3.07,2.395-4.054c0.799-0.553,1.827-0.998,3.086-1.336s2.58-0.567,3.961-0.691
	c1.382-0.122,2.718-0.092,4.007,0.093c1.29,0.185,2.365,0.491,3.225,0.921c0.614,0.308,1.167,0.737,1.658,1.29
	s0.89,1.137,1.198,1.75c0.492,0.983,0.875,2.012,1.151,3.087c0.276,1.074,0.507,2.134,0.691,3.179
	c0.307,2.211,0.46,4.437,0.46,6.679c0,2.241-0.061,4.498-0.184,6.771c0.983-0.799,2.058-1.429,3.225-1.889
	c1.167-0.461,2.365-0.814,3.592-1.06c1.782-0.307,3.609-0.445,5.482-0.414c1.873,0.03,3.701,0.353,5.481,0.967
	c0.799,0.307,1.566,0.645,2.303,1.014c0.738,0.368,1.413,0.828,2.027,1.382c2.212,2.026,4.007,4.468,5.39,7.323
	c1.382,2.856,2.288,5.789,2.718,8.798c0.307,2.703,0.245,5.451-0.185,8.245c-0.43,2.795-1.259,5.421-2.487,7.877
	c-0.799,1.536-1.781,2.979-2.947,4.33c-1.168,1.352-2.457,2.519-3.87,3.501c-1.475,1.044-3.07,1.857-4.791,2.441
	c-1.719,0.583-3.47,0.998-5.251,1.244c-2.579,0.307-5.174,0.537-7.784,0.69c-2.61,0.153-5.083-0.23-7.417-1.151
	c-0.308-0.123-0.706-0.016-1.198,0.322C196.016,158.651,195.617,158.882,195.31,159.004z"/>
<path fill="#AB1A2E" d="M147.841,36.25c-0.226-0.226-0.54-0.366-0.887-0.366c-0.355,0-0.672,0.136-0.897,0.356l0.01,0.01
	c-0.226,0.226-0.367,0.54-0.367,0.887c0,0.347,0.141,0.661,0.367,0.887l-0.01,0.011c0.225,0.219,0.542,0.356,0.897,0.356
	c0.347,0,0.661-0.141,0.887-0.367s0.366-0.54,0.366-0.887C148.207,36.79,148.066,36.476,147.841,36.25 M146.954,24.945
	c3.365,0,6.415,1.365,8.62,3.571c2.206,2.206,3.571,5.255,3.571,8.62c0,3.366-1.365,6.415-3.571,8.621
	c-2.206,2.206-5.255,3.571-8.62,3.571c-3.351,0-6.392-1.365-8.599-3.571h-0.021c-2.206-2.206-3.571-5.255-3.571-8.621
	c0-3.365,1.365-6.414,3.571-8.62h0.021C140.562,26.311,143.603,24.945,146.954,24.945z"/>
<path fill-rule="evenodd" clip-rule="evenodd" fill="#FFFFFF" d="M146.954,30.415c3.713,0,6.722,3.01,6.722,6.722
	c0,3.713-3.009,6.722-6.722,6.722c-3.712,0-6.723-3.009-6.723-6.722C140.231,33.424,143.242,30.415,146.954,30.415"/>
</svg>
